{"title":"JulesJordan.10.06.14.Amy.Brooke.Anal.Probing.By.A.Big.Black.Cock","uid":10330925,"size":233862204,"categoryP":"porn","categoryS":"other","magnet":"?xt=urn:btih:eef1c28a034819e167b781c1605587b4083d807a&amp;dn=JulesJordan.10.06.14.Amy.Brooke.Anal.Probing.By.A.Big.Black.Cock&amp;tr=udp%3A%2F%2Ftracker.openbittorrent.com%3A80&amp;tr=udp%3A%2F%2Fopen.demonii.com%3A1337&amp;tr=udp%3A%2F%2Ftracker.coppersurfer.tk%3A6969&amp;tr=udp%3A%2F%2Fexodus.desync.com%3A6969","seeders":2,"leechers":1,"uploader":"rturner77","files":-1,"time":1402412488,"description":"Screens:\n &lt;a href=&quot;\nhttp://bayimg.com/eaoIDAaFk&quot; rel=&quot;nofollow&quot; target=&quot;_NEW&quot;&gt;\nhttp://bayimg.com/eaoIDAaFk&lt;/a&gt;\n\n\nGeneral\nComplete name                               /another.azz.creation.scene.4.sd.mp4\nFormat                                   : MPEG-4\nFormat profile                           : Base Media\nCodec ID                                 : isom\nFile size                                : 222 MiB\nDuration                                 : 28mn 48s\nOverall bit rate                         : 1 079 Kbps\nEncoded date                             : UTC 2014-04-29 18:28:53\nTagged date                              : UTC 2014-04-29 18:28:53\nWriting application                      : Lavf53.24.2\n\nVideo\nID                                       : 1\nFormat                                   : AVC\nFormat/Info                              : Advanced Video Codec\nFormat profile                           : &lt;a class=&quot;__cf_email__&quot; href=&quot;/cdn-cgi/l/email-protection&quot; data-cfemail=&quot;4b062a22250b0778657b&quot;&gt;[email&amp;#160;protected]&lt;/a&gt;&lt;script cf-hash='f9e31' type=&quot;text/javascript&quot;&gt;\n/* &lt;![CDATA[ */!function(){try{var t=&quot;currentScript&quot;in document?document.currentScript:function(){for(var t=document.getElementsByTagName(&quot;script&quot;),e=t.length;e--;)if(t[e].getAttribute(&quot;cf-hash&quot;))return t[e]}();if(t&amp;&amp;t.previousSibling){var e,r,n,i,c=t.previousSibling,a=c.getAttribute(&quot;data-cfemail&quot;);if(a){for(e=&quot;&quot;,r=parseInt(a.substr(0,2),16),n=2;a.length-n;n+=2)i=parseInt(a.substr(n,2),16)^r,e+=String.fromCharCode(i);e=document.createTextNode(e),c.parentNode.replaceChild(e,c)}}}catch(u){}}();/* ]]&gt; */&lt;/script&gt;\nFormat settings, CABAC                   : Yes\nFormat settings, ReFrames                : 3 frames\nCodec ID                                 : avc1\nCodec ID/Info                            : Advanced Video Coding\nDuration                                 : 28mn 48s\nBit rate                                 : 1 000 Kbps\nWidth                                    : 640 pixels\nHeight                                   : 360 pixels\nDisplay aspect ratio                     : 16:9\nFrame rate mode                          : Constant\nFrame rate                               : 29.970 fps\nColor space                              : YUV\nChroma subsampling                       : 4:2:0\nBit depth                                : 8 bits\nScan type                                : Progressive\nBits/(Pixel*Frame)                       : 0.145\nStream size                              : 207 MiB (93%)\nWriting library                          : x264 core 124 r2197 69a0443\nEncoding settings                        : cabac=1 / ref=3 / deblock=1:0:0 / analyse=0x1:0x111 / me=hex / subme=5 / psy=0 / mixed_ref=0 / me_range=16 / chroma_me=1 / trellis=1 / 8x8dct=0 / cqm=0 / deadzone=21,11 / fast_pskip=1 / chroma_qp_offset=0 / threads=12 / sliced_threads=0 / nr=0 / decimate=1 / interlaced=0 / bluray_compat=0 / constrained_intra=0 / bframes=3 / b_pyramid=0 / b_adapt=1 / b_bias=0 / direct=1 / weightb=0 / open_gop=0 / weightp=2 / keyint=300 / keyint_min=29 / scenecut=40 / intra_refresh=0 / rc=abr / mbtree=0 / bitrate=1000 / ratetol=1.0 / qcomp=0.60 / qpmin=10 / qpmax=51 / qpstep=4 / ip_ratio=1.40 / pb_ratio=1.30 / aq=1:1.00\nEncoded date                             : UTC 2014-04-29 18:28:53\nTagged date                              : UTC 2014-04-29 18:28:53\n\nAudio\nID                                       : 2\nFormat                                   : AAC\nFormat/Info                              : Advanced Audio Codec\nFormat profile                           : LC\nCodec ID                                 : 40\nDuration                                 : 28mn 48s\nBit rate mode                            : Constant\nBit rate                                 : 64.2 Kbps\nChannel(s)                               : 2 channels\nChannel positions                        : Front: L R\nSampling rate                            : 48.0 KHz\nCompression mode                         : Lossy\nDelay relative to video                  : -1s 1ms\nStream size                              : 13.2 MiB (6%)\nEncoded date                             : UTC 2014-04-29 18:28:53\nTagged date                              : UTC 2014-04-29 18:28:53","torrent":{"xt":"urn:btih:eef1c28a034819e167b781c1605587b4083d807a","amp;dn":"JulesJordan.10.06.14.Amy.Brooke.Anal.Probing.By.A.Big.Black.Cock","amp;tr":["udp%3A%2F%2Ftracker.openbittorrent.com%3A80","udp%3A%2F%2Fopen.demonii.com%3A1337","udp%3A%2F%2Ftracker.coppersurfer.tk%3A6969","udp%3A%2F%2Fexodus.desync.com%3A6969"],"infoHash":"eef1c28a034819e167b781c1605587b4083d807a","infoHashBuffer":{"type":"Buffer","data":[238,241,194,138,3,72,25,225,103,183,129,193,96,85,135,180,8,61,128,122]},"announce":[],"urlList":[]}}